# xmcd
#
# Track frame offsets: 
#        150
#        10329
#        31278
#        49873
#        63378
#        87268
#        108738
#        119238
#        135876
#        155451
#        176510
#        208311
#        212811
#
# Disc length: 3083 seconds
#
# Revision: 0
# Processed by: cddbd v1.5.2PL0 Copyright (c) Steve Scherf et al.
# Submitted via: ExactAudioCopy v0.95b3
#
DISCID=bc0c090d
DTITLE=Cicada Omega - These Bones
DYEAR=2008
DGENRE=
TTITLE0=Four Horsemen
TTITLE1=Last Night
TTITLE2=The Boogie
TTITLE3=Ring Like Gold
TTITLE4=Flatline and The Never Ending Story of Chief Paduke
TTITLE5=I Smell Smoke
TTITLE6=Believe
TTITLE7=Big Black Chain
TTITLE8=This Time
TTITLE9=Things In The Sky
TTITLE10=Devil's Elbow
TTITLE11=Not Doing
TTITLE12=These Bones
EXTD=
EXTT0=
EXTT1=
EXTT2=
EXTT3=
EXTT4=
EXTT5=
EXTT6=
EXTT7=
EXTT8=
EXTT9=
EXTT10=
EXTT11=
EXTT12=
PLAYORDER=
